<svg width="818" height="653" viewBox="0 0 818 653" fill="none" xmlns="http://www.w3.org/2000/svg">
<path d="M474.001 127.371L131.406 35.5732L9.47786 490.616L352.073 582.414L474.001 127.371Z" fill="#474747"/>
<g opacity="0.1">
<path d="M474.001 127.371L131.406 35.5732L9.47786 490.616L352.073 582.414L474.001 127.371Z" fill="#020100"/>
</g>
<path d="M464.683 124.874L122.087 33.0762L0.159013 488.119L342.754 579.917L464.683 124.874Z" fill="#474747"/>
<path d="M440.333 137.818L136.888 60.6396L32.2675 471.982L335.713 549.161L440.333 137.818Z" fill="#EBEBEB"/>
<path d="M140.718 56.1678L22.0186 463.671L322.631 551.235L441.331 143.732L140.718 56.1678Z" fill="#DBDBDB"/>
<path d="M437.796 139.199L135.358 58.1611L25.5055 468.138L327.943 549.176L437.796 139.199Z" fill="white"/>
<path d="M169.223 200.366C161.097 198.406 145.352 194.521 137.255 192.452C139.589 183.056 143.139 169.994 145.583 160.561L145.792 159.782L146.571 159.991C156.005 162.619 169.073 166.02 178.357 168.708C176.081 176.767 171.604 192.353 169.223 200.366ZM169.223 200.366C171.108 192.52 175.003 176.862 176.982 169.041L177.416 169.792C168.364 167.484 155.312 164.02 146.199 161.628L147.187 161.058C144.719 170.267 141.176 183.18 138.649 192.174L138.216 191.423C145.982 193.604 161.56 198.112 169.223 200.366Z" fill="#C7C7C7"/>
<path d="M192.755 178.93C215.93 184.004 239.009 190.188 261.617 197.381C238.421 192.318 215.363 186.123 192.755 178.93Z" fill="#C7C7C7"/>
<path d="M190.738 186.456C249.735 201.145 315.004 218.668 373.497 235.426C314.45 220.674 249.195 203.222 190.738 186.456Z" fill="#C7C7C7"/>
<path d="M144.919 175.382C145.813 176.657 146.637 177.946 147.456 179.252C148.276 180.557 149.04 181.881 149.738 183.203C151.286 185.84 152.74 188.517 154.154 191.218L150.523 190.495C154.947 185.319 159.731 180.462 164.84 175.959C167.377 173.722 170.012 171.577 172.744 169.526C175.502 167.452 178.395 165.566 181.405 163.88C179.596 166.815 177.593 169.626 175.409 172.294C173.279 174.947 171.025 177.5 168.682 179.945C164.001 184.855 158.99 189.438 153.683 193.664L151.018 195.755L150.098 192.954C149.102 190.065 148.141 187.168 147.255 184.242C146.85 182.763 146.373 181.3 146.003 179.814C145.633 178.329 145.199 176.893 144.919 175.382Z" fill="#263238"/>
<path d="M153.532 258.928C145.406 256.967 129.661 253.083 121.564 251.013C123.898 241.617 127.444 228.571 129.892 219.123L130.101 218.344L130.88 218.552C140.314 221.18 153.382 224.582 162.662 227.285C160.386 235.344 155.913 250.914 153.532 258.928ZM153.532 258.928C155.417 251.082 159.312 235.424 161.291 227.603L161.72 228.369C152.668 226.061 139.621 222.581 130.508 220.19L131.496 219.619C129.028 228.829 125.48 241.758 122.958 250.735L122.524 249.985C130.291 252.166 145.868 256.674 153.532 258.928Z" fill="#C7C7C7"/>
<path d="M177.076 237.444C200.252 242.518 223.334 248.687 245.938 255.896C222.747 250.817 199.684 244.638 177.076 237.444Z" fill="#C7C7C7"/>
<path d="M175.063 244.955C234.056 259.66 299.329 277.167 357.822 293.925C298.771 279.188 233.516 261.737 175.063 244.955Z" fill="#C7C7C7"/>
<path d="M129.244 233.881C130.138 235.156 130.962 236.445 131.781 237.751C132.601 239.056 133.365 240.38 134.063 241.702C135.607 244.354 137.061 247.032 138.475 249.732L134.848 248.994C139.27 243.853 144.045 239.027 149.14 234.552C151.677 232.314 154.311 230.17 157.044 228.118C159.798 226.041 162.692 224.154 165.705 222.472C163.897 225.408 161.894 228.219 159.709 230.887C157.574 233.555 155.324 236.092 152.978 238.553C148.298 243.458 143.288 248.036 137.983 252.256L135.313 254.364L134.398 251.546C133.398 248.673 132.437 245.776 131.555 242.834C131.149 241.356 130.673 239.892 130.303 238.407C129.933 236.921 129.524 235.392 129.244 233.881Z" fill="#263238"/>
<path d="M137.869 317.38C129.743 315.42 113.998 311.535 105.901 309.466C108.235 300.07 111.785 287.008 114.229 277.575L114.425 276.843L115.204 277.051C124.638 279.679 137.707 283.081 146.991 285.769C144.715 293.827 140.242 309.398 137.857 317.427L137.869 317.38ZM137.869 317.38C139.754 309.534 143.649 293.876 145.628 286.055L146.061 286.806C137.01 284.497 123.958 281.034 114.845 278.642L115.833 278.072C113.365 287.281 109.822 300.194 107.295 309.188L106.862 308.437C114.628 310.618 130.206 315.126 137.869 317.38Z" fill="#C7C7C7"/>
<path d="M161.401 295.943C184.576 301.017 207.655 307.201 230.263 314.395C207.072 309.316 184.009 303.137 161.401 295.943Z" fill="#C7C7C7"/>
<path d="M159.384 303.47C218.381 318.159 283.65 335.682 342.143 352.44C283.096 337.688 217.841 320.236 159.384 303.47Z" fill="#C7C7C7"/>
<path d="M122.195 375.879C114.069 373.919 98.3241 370.034 90.227 367.965C92.5608 358.569 96.1066 345.523 98.5549 336.074L98.7637 335.295L99.5428 335.504C108.977 338.132 122.045 341.533 131.325 344.237C129.053 352.28 124.576 367.866 122.195 375.879ZM122.195 375.879C124.08 368.033 127.975 352.375 129.954 344.554L130.383 345.321C121.331 343.012 108.284 339.533 99.1709 337.141L100.159 336.571C97.6911 345.78 94.1434 358.709 91.6209 367.687L91.1874 366.936C98.9539 369.117 114.531 373.625 122.195 375.879Z" fill="#C7C7C7"/>
<path d="M145.722 354.458C168.902 359.517 191.98 365.7 214.584 372.91C191.393 367.831 168.33 361.651 145.722 354.458Z" fill="#C7C7C7"/>
<path d="M143.709 361.969C202.702 376.674 267.976 394.18 326.468 410.939C267.417 396.202 202.162 378.75 143.709 361.969Z" fill="#C7C7C7"/>
<path d="M106.516 434.394C98.3894 432.433 82.6491 428.533 74.5478 426.479C76.8816 417.084 80.4316 404.022 82.8757 394.589L83.0845 393.81L83.8636 394.018C93.2975 396.646 106.366 400.048 115.65 402.736C113.374 410.794 108.901 426.365 106.516 434.394ZM106.516 434.394C108.401 426.548 112.317 410.812 114.275 403.069L114.708 403.82C105.656 401.511 92.6048 398.047 83.4917 395.656L84.4797 395.085C82.0119 404.295 78.4684 417.208 75.9417 426.201L75.5082 425.451C83.2747 427.632 98.8522 432.14 106.516 434.394Z" fill="#C7C7C7"/>
<path d="M130.043 412.972C153.219 418.047 176.298 424.231 198.905 431.424C175.714 426.346 152.651 420.166 130.043 412.972Z" fill="#C7C7C7"/>
<path d="M128.031 420.484C187.028 435.173 252.297 452.695 310.79 469.454C251.743 454.701 186.488 437.249 128.031 420.484Z" fill="#C7C7C7"/>
<path d="M246.459 134.646L242.267 133.522L238.509 147.547C238.406 147.932 238.155 148.259 237.81 148.458C237.466 148.657 237.056 148.711 236.672 148.608C236.287 148.505 235.96 148.254 235.761 147.909C235.562 147.564 235.508 147.155 235.611 146.771L239.369 132.746L235.192 131.627C234.808 131.519 234.481 131.264 234.283 130.917C234.085 130.57 234.032 130.159 234.136 129.774C234.185 129.582 234.272 129.402 234.391 129.245C234.51 129.087 234.66 128.955 234.831 128.857C235.002 128.758 235.192 128.694 235.388 128.669C235.584 128.645 235.783 128.659 235.973 128.713L247.24 131.732C247.431 131.781 247.611 131.867 247.768 131.987C247.926 132.106 248.058 132.256 248.157 132.427C248.256 132.598 248.319 132.788 248.344 132.984C248.369 133.18 248.354 133.379 248.301 133.569C248.177 133.942 247.922 134.257 247.583 134.455C247.244 134.653 246.844 134.721 246.459 134.646Z" fill="#474747"/>
<path d="M256.161 149.237L249.757 147.521L247.545 150.603C247.362 150.847 247.109 151.03 246.821 151.129C246.532 151.227 246.221 151.236 245.927 151.155C245.758 151.109 245.597 151.038 245.449 150.943C245.135 150.696 244.923 150.341 244.856 149.946C244.789 149.551 244.871 149.146 245.086 148.808L255.089 134.787C255.284 134.549 255.542 134.371 255.835 134.274C256.127 134.178 256.44 134.167 256.738 134.243C257.034 134.327 257.301 134.493 257.505 134.722C257.71 134.952 257.845 135.235 257.894 135.539L259.547 152.683C259.564 153.083 259.433 153.475 259.177 153.783C258.922 154.091 258.561 154.294 258.165 154.351C257.99 154.359 257.815 154.34 257.645 154.295C257.352 154.22 257.088 154.057 256.889 153.828C256.691 153.598 256.568 153.314 256.536 153.012L256.161 149.237ZM255.863 146.051L255.248 139.807L251.593 144.907L255.863 146.051Z" fill="#474747"/>
<path d="M262.815 150.77C262.967 150.661 263.139 150.584 263.321 150.541C263.503 150.499 263.691 150.493 263.875 150.524C264.059 150.555 264.236 150.622 264.394 150.72C264.552 150.819 264.689 150.949 264.798 151.101C265.888 152.684 267.464 153.868 269.288 154.475C270.458 154.818 271.706 154.784 272.855 154.379C273.234 154.265 273.58 154.062 273.863 153.786C274.146 153.51 274.359 153.169 274.482 152.794C274.57 152.493 274.569 152.174 274.478 151.874C274.359 151.504 274.159 151.165 273.892 150.882C272.944 149.956 271.838 149.207 270.626 148.671C269.507 148.162 268.457 147.51 267.505 146.732C266.624 146.025 265.961 145.083 265.594 144.015C265.372 143.257 265.368 142.451 265.582 141.69C265.812 140.936 266.215 140.246 266.76 139.675C267.304 139.105 267.974 138.67 268.717 138.405C270.307 137.842 272.031 137.785 273.655 138.242C275.711 138.906 277.519 140.177 278.841 141.886C279.081 142.167 279.2 142.53 279.173 142.898C279.146 143.266 278.976 143.609 278.699 143.852C278.564 143.979 278.405 144.078 278.232 144.143C278.058 144.207 277.874 144.236 277.689 144.227C277.504 144.218 277.323 144.171 277.156 144.09C276.99 144.01 276.841 143.896 276.72 143.756C275.78 142.445 274.459 141.456 272.937 140.922C271.883 140.624 270.764 140.662 269.734 141.032C269.399 141.129 269.093 141.306 268.843 141.547C268.592 141.788 268.403 142.087 268.294 142.417C268.205 142.675 268.2 142.954 268.28 143.215C268.392 143.538 268.568 143.835 268.798 144.089C269.659 144.951 270.675 145.642 271.792 146.127C272.99 146.683 274.115 147.382 275.142 148.21C276.082 148.968 276.79 149.974 277.187 151.113C277.422 151.9 277.435 152.735 277.225 153.529C276.981 154.334 276.548 155.07 275.962 155.674C275.376 156.278 274.654 156.734 273.856 157.002C272.162 157.645 270.308 157.733 268.561 157.253C266.113 156.478 263.989 154.917 262.519 152.812C262.403 152.658 262.319 152.484 262.272 152.298C262.224 152.112 262.214 151.919 262.241 151.729C262.269 151.539 262.334 151.357 262.432 151.192C262.531 151.027 262.661 150.884 262.815 150.77Z" fill="#474747"/>
<path d="M280.146 158.771L284.28 143.343C284.383 142.959 284.635 142.631 284.979 142.432C285.324 142.233 285.733 142.179 286.118 142.282C286.502 142.385 286.83 142.637 287.029 142.981C287.228 143.326 287.282 143.736 287.179 144.12L285.149 151.693L295.985 145.411C296.156 145.309 296.345 145.242 296.542 145.215C296.738 145.188 296.939 145.2 297.13 145.251C297.322 145.303 297.502 145.392 297.658 145.514C297.815 145.636 297.946 145.789 298.042 145.962C298.239 146.308 298.292 146.718 298.189 147.103C298.085 147.488 297.835 147.817 297.491 148.019L290.149 152.231L293.95 161.484C294.035 161.662 294.082 161.856 294.09 162.053C294.097 162.25 294.064 162.447 293.993 162.631C293.922 162.815 293.814 162.983 293.676 163.124C293.537 163.265 293.372 163.376 293.189 163.451C292.876 163.608 292.515 163.643 292.178 163.548C291.972 163.488 291.782 163.383 291.62 163.242C291.459 163.101 291.331 162.926 291.245 162.73L287.541 153.737L284.047 155.807L283.045 159.547C282.942 159.932 282.69 160.259 282.346 160.458C282.001 160.657 281.592 160.711 281.207 160.608C280.823 160.505 280.495 160.254 280.296 159.909C280.097 159.564 280.043 159.155 280.146 158.771Z" fill="#474747"/>
<path d="M299 160.465C299.149 160.355 299.319 160.275 299.5 160.232C299.681 160.188 299.869 160.181 300.052 160.212C300.236 160.242 300.411 160.309 300.568 160.409C300.725 160.509 300.861 160.639 300.966 160.792C302.058 162.373 303.634 163.558 305.457 164.166C306.627 164.509 307.874 164.475 309.024 164.07C309.406 163.96 309.755 163.759 310.041 163.484C310.328 163.208 310.542 162.867 310.667 162.489C310.756 162.187 310.749 161.864 310.647 161.565C310.529 161.199 310.335 160.862 310.076 160.577C309.125 159.648 308.013 158.897 306.795 158.362C305.675 157.853 304.626 157.202 303.674 156.423C302.794 155.721 302.135 154.779 301.778 153.711C301.543 152.953 301.534 152.144 301.751 151.382C301.981 150.627 302.384 149.937 302.928 149.367C303.473 148.796 304.143 148.361 304.886 148.096C306.475 147.533 308.2 147.476 309.823 147.933C311.881 148.595 313.69 149.866 315.01 151.577C315.256 151.865 315.378 152.238 315.349 152.616C315.32 152.993 315.142 153.344 314.855 153.59C314.567 153.837 314.194 153.959 313.816 153.929C313.439 153.9 313.088 153.722 312.842 153.435C311.902 152.124 310.581 151.135 309.059 150.601C308.006 150.302 306.886 150.341 305.856 150.711C305.523 150.812 305.219 150.989 304.969 151.23C304.719 151.471 304.529 151.767 304.416 152.096C304.335 152.355 304.33 152.632 304.402 152.894C304.521 153.219 304.702 153.517 304.935 153.772C305.791 154.632 306.802 155.322 307.914 155.806C309.106 156.362 310.225 157.06 311.249 157.885C312.188 158.642 312.897 159.648 313.294 160.788C313.536 161.573 313.549 162.411 313.331 163.203C313.087 164.009 312.654 164.745 312.068 165.349C311.482 165.953 310.76 166.408 309.962 166.676C308.269 167.322 306.414 167.41 304.667 166.928C302.222 166.146 300.101 164.586 298.625 162.486C298.515 162.33 298.437 162.153 298.396 161.966C298.355 161.778 298.352 161.585 298.387 161.397C298.422 161.209 298.494 161.029 298.599 160.869C298.704 160.709 298.841 160.572 299 160.465Z" fill="#474747"/>
<path d="M366.599 89.6909L218.045 49.886L205.911 95.1706L354.465 134.975L366.599 89.6909Z" fill="#C7C7C7"/>
<path d="M344.375 57.1963L252.185 32.4941L241.467 56.1617L343.194 83.4193L344.375 57.1963ZM294.19 62.7895C293.114 62.5013 292.148 61.9006 291.414 61.0634C290.68 60.2261 290.21 59.19 290.065 58.0859C289.919 56.9819 290.105 55.8595 290.597 54.8608C291.09 53.862 291.867 53.0318 292.832 52.475C293.796 51.9182 294.904 51.6599 296.015 51.7327C297.126 51.8056 298.191 52.2063 299.075 52.8842C299.958 53.5621 300.621 54.4867 300.979 55.5412C301.337 56.5957 301.374 57.7326 301.086 58.8083C300.896 59.5236 300.567 60.1944 300.117 60.7821C299.668 61.3698 299.106 61.8629 298.466 62.2329C297.825 62.6029 297.117 62.8425 296.383 62.9381C295.649 63.0336 294.904 62.9831 294.19 62.7895Z" fill="#C7C7C7"/>
<path d="M343.194 83.4192L241.467 56.1616L243.869 50.876L343.445 77.5574L343.194 83.4192Z" fill="#A6A6A6"/>
<path d="M810.472 266.889C757.784 338.312 702.898 420.998 689.602 510.442C689.602 511.816 691.635 512.255 691.909 510.882C697.996 486.559 705.78 462.693 715.205 439.458C749.872 429.899 783.826 422.097 802.011 387.704C820.581 352.377 818.219 306.337 814.703 267.823C814.318 265.625 811.516 265.515 810.472 266.889Z" fill="white" fill-opacity="0.2"/>
<path d="M715.644 438.634C739.323 385.507 769.651 332.214 808.274 288.536C808.274 288.536 808.933 288.536 808.714 288.975C783.441 320.072 764.211 353.915 745.477 388.363C762.893 370.672 782.012 354.794 798.55 336.06C798.879 335.675 799.374 336.06 799.044 336.554C782.562 356.278 764.761 377.65 743.389 392.209C737.62 402.758 731.851 413.417 726.028 424.02C727.456 423.196 728.939 422.482 730.368 421.768L730.643 422.152C728.994 422.976 727.401 423.855 725.698 424.57L717.347 439.569C716.688 440.722 715.149 439.733 715.644 438.634Z" fill="#263238"/>
<path d="M733.225 420.064C747.397 412.157 760.919 403.137 773.662 393.088C773.991 392.813 774.541 393.088 774.156 393.583C761.804 404.245 748.274 413.462 733.829 421.053C733.704 421.087 733.57 421.079 733.449 421.03C733.328 420.982 733.226 420.896 733.158 420.784C733.09 420.673 733.06 420.543 733.072 420.413C733.084 420.283 733.138 420.161 733.225 420.064Z" fill="#263238"/>
<path d="M683.394 497.146C683.394 498.245 685.372 498.245 685.317 497.146C685.317 467.643 685.317 438.085 685.811 408.472C693.338 393.253 709.546 384.792 720.809 372.595C728.909 363.695 735.952 353.887 741.796 343.367C755.369 318.222 763.669 290.572 766.19 262.109C769.322 230.573 757.344 126.57 744.214 130.251C737.346 132.119 715.04 183.653 709.161 200.63C699.545 228.718 692.52 257.628 688.174 286.997C677.24 356.223 678.12 427.371 683.394 497.146Z" fill="white" fill-opacity="0.2"/>
<path d="M683.064 370.068C684.657 332.763 693.063 295.128 700.92 258.977C709.38 220.024 719.27 183.378 739.378 148.656C739.451 148.525 739.573 148.428 739.717 148.386C739.861 148.345 740.016 148.363 740.147 148.436C740.279 148.509 740.375 148.631 740.417 148.775C740.458 148.919 740.44 149.074 740.367 149.205C727.019 176.23 716.683 204.64 709.545 233.924C710.864 231.836 712.512 229.859 713.886 227.826C714.435 227.057 715.754 227.826 715.204 228.595C713.422 231.748 711.323 234.712 708.941 237.44C708.898 237.46 708.851 237.47 708.804 237.47C708.756 237.47 708.709 237.46 708.666 237.44C701.799 265.296 696.799 293.755 692.569 322.159C692.909 321.819 693.221 321.451 693.502 321.061C693.502 321.061 694.107 321.061 693.942 321.39C693.777 321.72 692.843 323.313 692.294 324.247C690.151 338.642 688.173 353.036 686.14 367.321C711.853 345.344 733.774 319.522 746.136 287.656C734.049 320.621 714.93 350.069 685.701 370.068C685.152 373.914 684.602 377.76 684.108 381.606C684.108 382.375 682.679 382.155 682.679 381.606C682.679 378.254 682.679 374.848 683.009 371.441C682.898 371.362 682.809 371.256 682.75 371.134C682.69 371.011 682.662 370.876 682.667 370.74C682.673 370.604 682.712 370.471 682.781 370.354C682.85 370.237 682.947 370.138 683.064 370.068Z" fill="#263238"/>
<path d="M695.261 316.061C715.334 287.638 732.838 257.485 747.565 225.958C747.565 225.628 748.389 225.958 748.224 226.233C736.487 259.311 718.881 290.001 696.25 316.83C695.811 317.325 694.877 316.666 695.261 316.061Z" fill="#263238"/>
<path d="M721.523 218.761C729.654 204.366 738.005 190.356 745.862 175.742C745.862 175.302 746.631 175.742 746.466 176.071C740.206 191.372 732.264 205.929 722.787 219.475C722.072 220.409 720.864 219.585 721.523 218.761Z" fill="#263238"/>
<path d="M663.45 411.933C663.068 431.469 660.767 450.92 656.582 470.006C656.912 472.094 657.187 474.181 657.516 476.379C663.512 455.289 666.998 433.565 667.9 411.659C668.074 411.358 668.165 411.017 668.165 410.67C668.165 410.322 668.074 409.981 667.9 409.681C668.733 380.326 666.561 350.963 661.417 322.05C652.297 267.878 632.353 215.959 594.609 175.357C594.296 175.089 593.925 174.897 593.525 174.795C593.126 174.693 592.708 174.684 592.305 174.769C591.901 174.854 591.523 175.03 591.198 175.285C590.874 175.539 590.612 175.865 590.433 176.236C575.16 214.97 580.489 261.175 593.455 299.854C600.526 320.783 610.613 340.569 623.398 358.586C636.419 376.661 652.956 392.045 663.45 411.933Z" fill="white" fill-opacity="0.2"/>
<path d="M599.114 193.378C634.88 251.45 659.549 320.347 662.845 388.913C662.845 390.122 660.867 390.451 660.702 389.243C659.823 383.034 658.889 376.936 657.9 370.837C642.336 357.098 628.68 341.336 617.299 323.973C617.299 323.698 617.574 323.313 617.793 323.588C630.088 338.654 643.26 352.982 657.241 366.497C654.659 351.333 651.747 336.444 648.066 321.72C647.077 320.621 646.143 319.467 645.209 318.369C644.275 317.27 645.649 316.611 646.253 317.325L647.132 318.259C642.088 298.109 635.85 278.277 628.452 258.868C619.332 247.879 609.113 238.594 602.52 225.518L602.959 225.244C608.454 232.716 613.453 240.243 619.442 247.22C621.859 249.967 624.551 252.714 627.024 255.241C618.777 234.202 608.989 213.8 597.74 194.202C597.685 194.026 597.691 193.836 597.757 193.663C597.822 193.49 597.944 193.345 598.103 193.25C598.261 193.155 598.447 193.116 598.63 193.139C598.814 193.162 598.984 193.246 599.114 193.378Z" fill="#263238"/>
<path d="M606.146 265.021C617.684 280.569 630.87 295.458 641.638 311.556C641.913 311.996 641.254 312.49 640.869 312.105C627.155 298.071 615.216 282.406 605.322 265.461C605.267 264.966 606.146 264.362 606.146 265.021Z" fill="#263238"/>
<path d="M643.452 315.127L643.946 315.622C644.276 315.951 643.946 316.501 643.452 316.171L642.957 315.677C642.573 315.347 643.122 314.798 643.452 315.127Z" fill="#263238"/>
<path d="M543.02 305.018C547.261 337.463 560.337 368.119 580.819 393.638C589.248 403.645 599.67 411.784 611.421 417.537C624.717 424.075 638.562 431.657 652.297 437.041C658.822 453.637 663.663 470.847 666.747 488.411C667.186 486.928 667.626 485.389 668.12 483.851C659.275 408.252 610.322 343.587 547.689 302.051C547.198 301.749 546.632 301.59 546.055 301.595C545.478 301.599 544.914 301.765 544.427 302.074C543.94 302.384 543.55 302.824 543.301 303.344C543.052 303.865 542.955 304.445 543.02 305.018Z" fill="white" fill-opacity="0.2"/>
<path d="M564.666 327.379C564.227 326.994 564.666 326.225 565.325 326.555C599.734 352.138 627.165 385.954 645.1 424.899C645.539 425.943 644.166 426.822 643.561 425.778C640.649 420.724 637.683 415.724 634.661 410.889C620.376 408.197 606.861 398.143 596.202 388.583C595.928 388.309 596.202 387.924 596.642 388.144C602.109 393.117 608.183 397.381 614.717 400.835C620.541 403.802 626.859 405.67 632.903 408.032C627.409 399.626 621.915 391.55 616.421 383.749C600.986 377.877 586.507 369.749 573.457 359.629C573.072 359.3 573.457 358.64 573.896 358.915C586.825 366.704 600.138 373.837 613.783 380.287C605.074 368.731 595.661 357.722 585.599 347.323C580.764 344.795 575.819 342.213 571.149 339.466C570.765 339.466 571.149 338.587 571.149 338.752C575.02 340.134 578.709 341.978 582.137 344.246C576.753 338.532 570.929 332.873 564.666 327.379Z" fill="#263238"/>
<path d="M566.04 353.531C566.862 354.049 567.651 354.618 568.402 355.234C568.677 355.234 568.402 355.729 568.127 355.619C567.238 355.23 566.392 354.751 565.6 354.19C565.16 353.916 565.6 353.201 566.04 353.531Z" fill="#263238"/>
<path d="M765.805 652.245H594.225L608.07 495.993L611.147 461.545H748.938L751.96 495.993L765.805 652.245Z" fill="#455A64"/>
<path d="M751.96 495.993H608.07L611.147 461.545H748.938L751.96 495.993Z" fill="#263238"/>
<path d="M757.125 437.426H602.905V471.544H757.125V437.426Z" fill="#455A64"/>
</svg>
