<svg width="1208" height="824" viewBox="0 0 1208 824" fill="none" xmlns="http://www.w3.org/2000/svg">
<path opacity="0.2" d="M254.646 300.571C254.646 300.571 109.926 340.864 91.1969 410.762L341.135 477.732C359.847 407.83 254.646 300.571 254.646 300.571Z" fill="white"/>
<path opacity="0.2" d="M231.06 388.593C231.06 388.593 108.022 386.258 100.769 413.326L331.528 475.158C338.781 448.09 231.06 388.593 231.06 388.593Z" fill="#371F17"/>
<path opacity="0.3" d="M264.354 325.003C281.635 354.363 313.537 417.708 300.379 466.812L269.112 458.434C282.269 409.33 271.008 351.516 264.354 325.003Z" fill="white"/>
<path opacity="0.2" d="M254.645 300.571C254.645 300.571 149.461 193.316 168.19 123.418L418.128 190.389C399.382 260.282 254.645 300.571 254.645 300.571Z" fill="white"/>
<path opacity="0.2" d="M256.45 293.837C256.45 293.837 200.857 246.139 208.647 217.065L336.251 251.256C328.475 280.28 256.45 293.837 256.45 293.837Z" fill="#371F17"/>
<path opacity="0.3" d="M246.484 276.552C229.22 247.197 197.369 183.865 210.527 134.762L241.794 143.14C228.569 192.225 239.779 250.026 246.484 276.552Z" fill="white"/>
<path opacity="0.3" d="M275.27 284.265C304.916 267.48 364.662 222.35 377.373 179.468L369.042 177.236C351.022 228.845 299.818 266.916 275.27 284.265Z" fill="white"/>
<path d="M407.753 161.167L393.59 157.372L393.134 159.072L407.297 162.867L407.753 161.167Z" fill="#371F17"/>
<path d="M449.577 197.412L447.877 196.956C449.41 191.215 448.604 185.099 445.634 179.951C442.665 174.803 437.775 171.043 432.036 169.496L417.091 165.491L417.547 163.791L432.492 167.795C438.678 169.467 443.95 173.523 447.152 179.074C450.355 184.626 451.226 191.219 449.577 197.412Z" fill="#371F17"/>
<path d="M430.88 173.742L165.436 102.616C155.82 100.04 145.937 105.746 143.36 115.362L142.659 117.98C140.082 127.596 145.788 137.479 155.404 140.056L420.848 211.181C430.464 213.758 440.348 208.052 442.924 198.436L443.626 195.818C446.202 186.202 440.496 176.318 430.88 173.742Z" fill="#371F17"/>
<path d="M353.887 461.085L88.4424 389.96C78.8268 387.383 68.9431 393.089 66.3666 402.705L65.665 405.323C63.0885 414.939 68.7948 424.823 78.4105 427.399L343.855 498.525C353.47 501.101 363.354 495.395 365.931 485.779L366.632 483.161C369.209 473.545 363.502 463.662 353.887 461.085Z" fill="#371F17"/>
<path d="M1036.28 414.31L767.04 486.452C761.521 487.931 756.841 491.633 754.029 496.745C751.216 501.856 750.502 507.958 752.042 513.708L795.613 676.315C797.153 682.065 800.823 686.993 805.815 690.013C810.806 693.033 816.71 693.899 822.229 692.421L923.245 665.354L985.519 755.444L988.942 647.75L1091.47 620.279C1096.99 618.8 1101.67 615.098 1104.48 609.986C1107.29 604.875 1108.01 598.773 1106.46 593.023L1062.89 430.416C1061.35 424.666 1057.68 419.739 1052.69 416.718C1047.7 413.698 1041.8 412.832 1036.28 414.31Z" fill="#263238"/>
<path d="M986.318 758.425C985.79 758.563 985.23 758.527 984.715 758.321C984.201 758.116 983.758 757.751 983.446 757.278L922.297 669.094L823.101 695.673C816.907 697.318 810.286 696.339 804.687 692.95C799.088 689.562 794.966 684.041 793.224 677.595L749.654 514.988C747.939 508.534 748.748 501.692 751.903 495.958C755.058 490.224 760.302 486.066 766.488 484.393L1035.73 412.251C1041.92 410.606 1048.54 411.586 1054.14 414.974C1059.74 418.362 1063.86 423.883 1065.6 430.329L1109.17 592.936C1110.89 599.39 1110.08 606.232 1106.92 611.966C1103.77 617.7 1098.53 621.858 1092.34 623.531L991.739 650.487L988.336 755.968C988.31 756.544 988.116 757.095 987.78 757.548C987.443 758.001 986.98 758.335 986.451 758.506L986.318 758.425ZM767.81 489.325C763.003 490.629 758.929 493.861 756.477 498.317C754.025 502.773 753.395 508.09 754.725 513.106L798.295 675.713C799.652 680.722 802.856 685.011 807.207 687.644C811.559 690.277 816.703 691.04 821.518 689.765L922.534 662.698C923.062 662.56 923.62 662.59 924.138 662.782C924.657 662.974 925.111 663.321 925.444 663.777L983.06 747.098L986.251 647.484C986.252 646.891 986.443 646.319 986.793 645.857C987.143 645.395 987.634 645.07 988.188 644.932L1090.71 617.46C1095.53 616.17 1099.61 612.94 1102.06 608.48C1104.52 604.02 1105.14 598.696 1103.8 593.679L1060.23 431.073C1058.88 426.056 1055.68 421.757 1051.33 419.122C1046.97 416.486 1041.82 415.731 1037 417.021L767.81 489.325Z" fill="#263238"/>
<path d="M1025.19 409.962L755.95 482.104C750.432 483.583 745.752 487.285 742.939 492.396C740.127 497.508 739.412 503.61 740.953 509.36L784.523 671.967C786.064 677.717 789.734 682.644 794.725 685.665C799.717 688.685 805.621 689.551 811.139 688.072L912.104 661.019L974.429 751.095L977.853 643.402L1080.38 615.93C1085.9 614.452 1090.58 610.749 1093.39 605.638C1096.2 600.526 1096.92 594.424 1095.38 588.674L1051.8 426.068C1050.26 420.317 1046.59 415.39 1041.6 412.37C1036.61 409.349 1030.71 408.483 1025.19 409.962Z" fill="white"/>
<path d="M975.185 753.913C974.65 754.048 974.085 754.012 973.564 753.81C973.042 753.608 972.588 753.249 972.261 752.78L911.164 664.582L811.968 691.162C805.774 692.806 799.153 691.827 793.554 688.439C787.955 685.051 783.833 679.529 782.091 673.083L738.521 510.476C736.806 504.022 737.615 497.18 740.77 491.446C743.925 485.713 749.169 481.554 755.355 479.881L1024.59 407.739C1030.79 406.095 1037.41 407.074 1043.01 410.462C1048.61 413.85 1052.73 419.371 1054.47 425.818L1098.04 588.424C1099.76 594.878 1098.95 601.721 1095.79 607.454C1092.64 613.188 1087.39 617.346 1081.21 619.019L980.606 645.975L977.203 751.456C977.169 752.039 976.966 752.594 976.621 753.05C976.275 753.505 975.803 753.839 975.266 754.008L975.185 753.913ZM756.677 484.814C751.862 486.104 747.779 489.334 745.325 493.794C742.871 498.254 742.248 503.578 743.592 508.595L787.162 671.201C788.507 676.218 791.708 680.517 796.063 683.153C800.419 685.788 805.57 686.544 810.385 685.254L911.349 658.2C911.877 658.055 912.437 658.08 912.957 658.273C913.477 658.466 913.931 658.817 914.259 659.28L971.927 742.587L975.066 642.986C975.085 642.389 975.288 641.817 975.646 641.355C976.004 640.893 976.498 640.566 977.055 640.42L1079.58 612.949C1084.39 611.645 1088.46 608.413 1090.91 603.957C1093.36 599.501 1093.99 594.184 1092.66 589.168L1049.09 426.561C1047.74 421.552 1044.53 417.263 1040.18 414.63C1035.83 411.997 1030.69 411.234 1025.87 412.509L756.677 484.814Z" fill="#263238"/>
<path d="M809.201 495.662L772.166 505.585L782.506 544.177L819.542 534.254L809.201 495.662Z" fill="#263238"/>
<path d="M820.321 536.951L783.233 546.888C782.543 547.073 781.805 546.965 781.181 546.587C780.557 546.21 780.098 545.594 779.906 544.875L769.565 506.283C769.372 505.564 769.462 504.802 769.813 504.163C770.165 503.524 770.75 503.061 771.44 502.876L808.528 492.938C809.217 492.754 809.955 492.862 810.579 493.239C811.203 493.617 811.662 494.233 811.855 494.952L822.195 533.544C822.388 534.262 822.299 535.025 821.947 535.664C821.595 536.303 821.01 536.766 820.321 536.951ZM784.381 540.771L816.268 532.227L807.379 499.056L775.493 507.599L784.381 540.771Z" fill="#263238"/>
<path d="M1028.75 462.977L838.938 513.836C838.248 514.021 837.51 513.913 836.886 513.535C836.262 513.158 835.804 512.542 835.611 511.823C835.418 511.104 835.508 510.342 835.859 509.703C836.211 509.064 836.796 508.601 837.486 508.416L1027.29 457.557C1027.98 457.372 1028.72 457.48 1029.35 457.858C1029.97 458.236 1030.43 458.851 1030.62 459.57C1030.81 460.289 1030.72 461.052 1030.37 461.691C1030.02 462.33 1029.44 462.792 1028.75 462.977Z" fill="#263238"/>
<path d="M825.119 555.067L788.083 564.991L798.424 603.583L835.46 593.659L825.119 555.067Z" fill="#263238"/>
<path d="M836.238 596.356L799.15 606.294C798.461 606.464 797.729 606.349 797.109 605.974C796.489 605.598 796.028 604.991 795.823 604.281L785.483 565.689C785.29 564.97 785.379 564.207 785.731 563.568C786.082 562.929 786.667 562.466 787.357 562.282L824.445 552.344C825.135 552.159 825.873 552.267 826.497 552.645C827.121 553.022 827.58 553.638 827.772 554.357L838.113 592.949C838.291 593.667 838.195 594.423 837.846 595.058C837.496 595.693 836.92 596.159 836.238 596.356ZM800.299 600.177L832.185 591.633L823.297 558.461L791.41 567.005L800.299 600.177Z" fill="#263238"/>
<path d="M1044.66 522.383L854.855 573.242C854.166 573.427 853.427 573.318 852.804 572.941C852.18 572.563 851.721 571.947 851.528 571.229C851.336 570.51 851.425 569.747 851.777 569.108C852.128 568.469 852.713 568.006 853.403 567.822L1043.21 516.963C1043.9 516.778 1044.64 516.886 1045.26 517.263C1045.89 517.641 1046.35 518.257 1046.54 518.976C1046.73 519.695 1046.64 520.457 1046.29 521.096C1045.94 521.735 1045.35 522.198 1044.66 522.383Z" fill="#263238"/>
<path d="M841.022 614.419L803.986 624.343L814.327 662.935L851.363 653.011L841.022 614.419Z" fill="#263238"/>
<path d="M852.141 655.707L815.054 665.645C814.364 665.83 813.626 665.721 813.002 665.344C812.378 664.966 811.919 664.35 811.727 663.632L801.386 625.04C801.208 624.322 801.304 623.566 801.653 622.931C802.003 622.295 802.579 621.83 803.261 621.633L840.348 611.695C841.038 611.525 841.769 611.64 842.39 612.015C843.01 612.391 843.471 612.997 843.675 613.708L854.016 652.3C854.209 653.019 854.119 653.782 853.768 654.421C853.416 655.06 852.831 655.522 852.141 655.707ZM816.202 659.528L848.088 650.984L839.185 617.758L807.299 626.302L816.202 659.528Z" fill="#263238"/>
<path d="M1060.55 581.68L870.744 632.539C870.054 632.724 869.316 632.616 868.692 632.238C868.068 631.861 867.61 631.245 867.417 630.526C867.224 629.807 867.314 629.045 867.665 628.406C868.017 627.767 868.602 627.304 869.292 627.119L1059.1 576.26C1059.79 576.075 1060.53 576.183 1061.15 576.561C1061.78 576.938 1062.24 577.554 1062.43 578.273C1062.62 578.992 1062.53 579.755 1062.18 580.394C1061.83 581.032 1061.24 581.495 1060.55 581.68Z" fill="#263238"/>
<path d="M796.048 530.209L795.684 530.307C795.271 530.332 794.855 530.271 794.462 530.127C794.069 529.983 793.706 529.758 793.396 529.467L779.82 515.212C779.315 514.677 779.032 513.96 779.032 513.22C779.032 512.479 779.316 511.775 779.821 511.262C780.067 511.001 780.364 510.796 780.691 510.659C781.019 510.521 781.371 510.455 781.727 510.462C782.083 510.47 782.436 510.552 782.763 510.703C783.091 510.855 783.387 511.073 783.634 511.344L794.599 522.929L819.94 477.681C820.293 477.039 820.88 476.575 821.573 476.389C822.265 476.203 823.006 476.312 823.633 476.691C824.259 477.07 824.72 477.689 824.913 478.411C825.107 479.132 825.017 479.898 824.664 480.54L797.954 529.001C797.751 529.343 797.473 529.63 797.142 529.84C796.811 530.049 796.437 530.176 796.048 530.209Z" fill="white"/>
<path d="M812.807 592.758L812.339 592.884C811.911 592.927 811.477 592.856 811.079 592.679C810.68 592.501 810.329 592.222 810.06 591.868L795.693 574.455C795.457 574.175 795.275 573.851 795.158 573.501C795.041 573.15 794.991 572.781 795.012 572.414C795.033 572.047 795.123 571.689 795.279 571.361C795.434 571.033 795.651 570.741 795.917 570.503C796.466 570.035 797.173 569.812 797.889 569.88C798.605 569.949 799.273 570.304 799.75 570.87L811.546 585.137L835.602 541.337C835.955 540.696 836.542 540.231 837.235 540.045C837.928 539.86 838.669 539.969 839.295 540.348C839.922 540.727 840.382 541.345 840.576 542.067C840.769 542.789 840.679 543.554 840.326 544.196L814.329 591.363C814.185 591.694 813.976 591.99 813.714 592.23C813.452 592.47 813.143 592.65 812.807 592.758Z" fill="white"/>
<path d="M828.086 649.779L827.618 649.905C827.191 649.929 826.763 649.849 826.368 649.673C825.972 649.497 825.62 649.228 825.338 648.889L810.986 631.53C810.752 631.254 810.572 630.933 810.457 630.587C810.341 630.241 810.293 629.875 810.316 629.513C810.338 629.15 810.429 628.797 810.585 628.474C810.742 628.151 810.959 627.865 811.224 627.632C811.493 627.394 811.806 627.214 812.145 627.103C812.484 626.992 812.842 626.953 813.199 626.987C813.555 627.021 813.903 627.128 814.222 627.302C814.542 627.476 814.826 627.713 815.058 627.999L826.853 642.267L850.924 598.521C851.098 598.202 851.331 597.923 851.612 597.701C851.892 597.478 852.213 597.316 852.556 597.224C852.899 597.132 853.258 597.112 853.612 597.165C853.966 597.217 854.307 597.342 854.617 597.531C855.229 597.91 855.679 598.52 855.869 599.229C856.059 599.938 855.975 600.691 855.634 601.325L829.651 648.546C829.303 649.152 828.744 649.592 828.086 649.779Z" fill="white"/>
<g opacity="0.3">
<path d="M665.496 428.974C634.94 428.974 605.07 419.533 579.663 401.843C554.256 384.154 534.454 359.011 522.76 329.594C511.067 300.178 508.007 267.809 513.969 236.58C519.93 205.352 534.644 176.667 556.251 154.152C577.858 131.638 605.386 116.305 635.355 110.093C665.325 103.882 696.389 107.07 724.619 119.254C752.85 131.439 776.979 152.073 793.955 178.548C810.931 205.022 819.992 236.147 819.992 267.987C819.95 310.67 803.659 351.592 774.695 381.774C745.73 411.955 706.458 428.93 665.496 428.974ZM665.496 112.53C635.989 112.53 607.145 121.648 582.611 138.73C558.077 155.811 538.956 180.09 527.664 208.496C516.372 236.902 513.417 268.16 519.174 298.315C524.93 328.471 539.139 356.171 560.004 377.912C580.868 399.653 607.451 414.459 636.391 420.457C665.331 426.455 695.328 423.377 722.588 411.611C749.849 399.844 773.149 379.919 789.542 354.354C805.935 328.79 814.685 298.734 814.685 267.987C814.643 226.771 798.911 187.255 770.942 158.111C742.973 128.967 705.05 112.574 665.496 112.53Z" fill="black"/>
<path d="M665.495 416.918C637.227 416.918 609.594 408.184 586.09 391.819C562.586 375.454 544.267 352.194 533.449 324.981C522.631 297.767 519.801 267.822 525.316 238.932C530.831 210.042 544.443 183.505 564.432 162.677C584.42 141.848 609.887 127.664 637.612 121.918C665.337 116.171 694.074 119.12 720.191 130.393C746.307 141.665 768.629 160.754 784.334 185.245C800.039 209.737 808.421 238.531 808.421 267.987C808.323 307.455 793.234 345.276 766.451 373.184C739.668 401.092 703.372 416.816 665.495 416.918ZM665.495 124.586C638.277 124.586 611.67 132.997 589.038 148.754C566.407 164.511 548.768 186.907 538.352 213.11C527.936 239.313 525.211 268.146 530.521 295.963C535.831 323.78 548.938 349.332 568.184 369.387C587.431 389.442 611.952 403.099 638.647 408.632C665.343 414.166 693.013 411.326 718.16 400.472C743.306 389.618 764.799 371.238 779.921 347.656C795.043 324.074 803.114 296.349 803.114 267.987C803.016 229.986 788.486 193.571 762.698 166.7C736.911 139.83 701.964 124.688 665.495 124.586Z" fill="black"/>
<path d="M665.496 399.498C664.792 399.498 664.117 399.207 663.62 398.688C663.122 398.169 662.842 397.466 662.842 396.733V267.987C662.84 267.571 662.93 267.16 663.105 266.786C663.28 266.412 663.535 266.085 663.851 265.831L710.396 227.616C710.663 227.353 710.98 227.151 711.326 227.023C711.672 226.894 712.04 226.842 712.407 226.869C712.773 226.896 713.13 227.002 713.455 227.181C713.78 227.36 714.066 227.607 714.295 227.906C714.524 228.206 714.69 228.552 714.784 228.922C714.877 229.293 714.896 229.679 714.839 230.057C714.782 230.436 714.65 230.797 714.451 231.12C714.253 231.442 713.993 231.718 713.687 231.93L668.15 269.315V396.512C668.171 396.891 668.119 397.271 667.996 397.629C667.873 397.987 667.682 398.315 667.434 398.594C667.186 398.873 666.887 399.097 666.554 399.252C666.221 399.408 665.861 399.491 665.496 399.498Z" fill="black"/>
</g>
</svg>
